<?xml version="1.0" standalone="no"?>
<!DOCTYPE svg PUBLIC "-//W3C//DTD SVG 20010904//EN"
 "http://www.w3.org/TR/2001/REC-SVG-20010904/DTD/svg10.dtd">
<svg version="1.0" xmlns="http://www.w3.org/2000/svg"
 width="512.000000pt" height="512.000000pt" viewBox="0 0 512.000000 512.000000"
 preserveAspectRatio="xMidYMid meet">

<g transform="translate(0.000000,512.000000) scale(0.100000,-0.100000)"
fill="#000000" stroke="none">
<path d="M2308 3394 c-278 -32 -460 -81 -899 -244 -295 -109 -336 -122 -541
-165 -249 -52 -337 -78 -451 -136 -122 -61 -213 -126 -314 -222 -113 -108
-118 -124 -75 -220 34 -73 52 -148 52 -210 0 -61 17 -114 43 -132 17 -12 54
-15 177 -15 l155 0 30 -63 c37 -77 139 -182 215 -219 113 -56 257 -73 366 -44
134 36 266 141 324 260 l33 66 1137 0 1137 0 33 -66 c99 -202 358 -318 579
-259 136 36 269 143 326 263 l29 62 70 0 70 0 148 98 c81 53 152 107 157 120
7 14 11 100 11 212 l0 189 -92 183 c-57 111 -103 189 -118 200 -30 21 -1617
318 -1832 342 -170 20 -601 20 -770 0z m266 -227 c5 -37 7 -69 5 -71 -2 -2
-236 -27 -519 -56 -283 -28 -535 -54 -560 -56 l-45 -5 50 21 c114 47 378 133
490 160 142 34 303 60 435 70 144 11 134 16 144 -63z m541 47 c130 -16 263
-41 229 -43 -35 -2 -506 -50 -545 -56 l-37 -5 -6 48 c-4 26 -10 56 -13 66 -5
18 0 19 123 12 71 -4 183 -14 249 -22z m-2072 -857 c101 -77 83 -246 -32 -294
-119 -51 -243 30 -243 157 0 70 40 133 102 159 45 19 134 8 173 -22z m3234 7
c102 -76 102 -211 2 -287 -54 -40 -144 -40 -198 0 -52 39 -66 70 -66 142 0 58
4 73 27 103 15 19 42 42 60 52 45 23 138 17 175 -10z"/>
</g>
</svg>
